<?xml version="1.0" encoding="iso-8859-1"?><!-- Generator: Adobe Illustrator 19.0.0, SVG Export Plug-In . SVG Version: 6.00 Build 0)  -->
<svg style="enable-background:new 0 0 512 512;" id="Capa_1" version="1.1" viewBox="0 0 512 512" x="0px"
    xmlns="http://www.w3.org/2000/svg" y="0px" xml:space="preserve">
<g>
	<g>
		<g>
			<path d="M160,0H0v160h160V0z M128,128H32V32h96V128z" />
            <rect height="32" width="32" x="64" y="64" />
            <path d="M352,0v160h160V0H352z M480,128h-96V32h96V128z" />
            <rect height="32" width="32" x="416" y="64" />
            <path d="M0,512h160V352H0V512z M32,384h96v96H32V384z" />
            <rect height="32" width="32" x="64" y="416" />
            <rect height="32" width="64" x="256" />
            <polygon
                points="256,128 288,128 288,96 320,96 320,64 224,64 224,32 192,32 192,64 192,80 192,96 256,96 			" />
            <rect height="32" width="32" x="192" y="128" />
            <polygon points="320,160 288,160 288,192 192,192 192,224 320,224 			" />
            <polygon points="32,288 64,288 64,256 32,256 32,192 0,192 0,320 32,320 			" />
            <rect height="32" width="32" x="64" y="192" />
            <polygon points="192,320 256,320 256,288 224,288 224,256 160,256 160,192 128,192 128,256 96,256 96,320 128,320 128,288
				144,288 160,288 192,288 			" />
            <rect height="64" width="32" x="288" y="256" />
            <polygon
                points="288,352 192,352 192,384 256,384 256,480 192,480 192,512 288,512 288,480 352,480 352,448 288,448 			" />
            <rect height="32" width="32" x="192" y="416" />
            <rect height="64" width="32" x="320" y="352" />
            <polygon points="480,416 384,416 384,512 416,512 416,448 480,448 			" />
            <rect height="32" width="64" x="448" y="480" />
            <rect height="32" width="32" x="480" y="352" />
            <polygon points="384,384 416,384 416,288 352,288 352,320 384,320 			" />
            <polygon
                points="448,224 416,224 416,192 384,192 384,224 352,224 352,256 480,256 480,224 512,224 512,192 448,192 			" />
            <rect height="32" width="64" x="448" y="288" />
		</g>
	</g>
</g>
    <g>
</g>
    <g>
</g>
    <g>
</g>
    <g>
</g>
    <g>
</g>
    <g>
</g>
    <g>
</g>
    <g>
</g>
    <g>
</g>
    <g>
</g>
    <g>
</g>
    <g>
</g>
    <g>
</g>
    <g>
</g>
    <g>
</g>
</svg>
