<?xml version="1.0" encoding="UTF-8"?>
<svg height="36px" version="1.1" viewBox="0 0 35 36" width="35px"
    xmlns="http://www.w3.org/2000/svg">
    <g fill="none" fill-rule="evenodd" id="CanSell" stroke="none" stroke-width="1">
        <g fill-rule="nonzero" id="HomePage" transform="translate(-34.000000, -455.000000)">
            <g id="book_store" transform="translate(24.000000, 445.000000)">
                <g id="bookstore" transform="translate(10.000000, 10.000000)">
                    <path
                        d="M33.3333333,28.8791209 C32.9967026,28.8791209 32.7238095,29.1447981 32.7238095,29.4725275 L32.7238095,34.8131868 L14.4380952,34.8131868 L14.4380952,21.1648352 C14.4380952,20.8371058 14.1652021,20.5714286 13.8285714,20.5714286 L4.07619048,20.5714286 C3.73955977,20.5714286 3.46666667,20.8371058 3.46666667,21.1648352 L3.46666667,34.8131868 L2.24761905,34.8131868 L2.24761905,26.5054945 C2.24761905,26.1777651 1.97472594,25.9120879 1.63809524,25.9120879 C1.30146453,25.9120879 1.02857143,26.1777651 1.02857143,26.5054945 L1.02857143,35.4065934 C1.02857143,35.7343228 1.30146453,36 1.63809524,36 L33.3333333,36 C33.669964,36 33.9428571,35.7343228 33.9428571,35.4065934 L33.9428571,29.4725275 C33.9428571,29.1447981 33.669964,28.8791209 33.3333333,28.8791209 Z M13.2190476,30.0659341 L9.56190476,30.0659341 L9.56190476,28.8791209 L10.1714286,28.8791209 C10.5080593,28.8791209 10.7809524,28.6134437 10.7809524,28.2857143 C10.7809524,27.9579849 10.5080593,27.6923077 10.1714286,27.6923077 L9.56190476,27.6923077 L9.56190476,21.7582418 L13.2190476,21.7582418 L13.2190476,30.0659341 Z M8.34285714,21.7582418 L8.34285714,27.6923077 L7.73333333,27.6923077 C7.39670263,27.6923077 7.12380952,27.9579849 7.12380952,28.2857143 C7.12380952,28.6134437 7.39670263,28.8791209 7.73333333,28.8791209 L8.34285714,28.8791209 L8.34285714,30.0659341 L4.68571429,30.0659341 L4.68571429,21.7582418 L8.34285714,21.7582418 Z M4.68571429,31.2527473 L8.34285714,31.2527473 L8.34285714,34.8131868 L4.68571429,34.8131868 L4.68571429,31.2527473 Z M9.56190476,34.8131868 L9.56190476,31.2527473 L13.2190476,31.2527473 L13.2190476,34.8131868 L9.56190476,34.8131868 Z"
                        fill="#000000" id="Shape"></path>
                    <path
                        d="M34.9020892,11.0299122 L34.9081187,11.0299122 L33.0992663,7.46459551 C32.9977873,7.26220064 32.7886978,7.13395891 32.5596253,7.13361527 L29.5448713,7.13361527 L29.5448713,1.78564022 C29.5448713,1.45746188 29.274921,1.19142077 28.9419205,1.19142077 C28.60892,1.19142077 28.3389697,1.45746188 28.3389697,1.78564022 L28.3389697,8.91627362 C28.3389697,9.90080865 27.5291189,10.698932 26.5301173,10.698932 L20.2642525,10.698932 C21.30443,10.2214629 22.4188067,9.92013512 23.5605845,9.8076028 L26.5904123,9.51049307 C26.8996666,9.47986583 27.1346256,9.22258072 27.1330681,8.91627362 L27.1330681,0.597201315 C27.1339251,0.428747362 27.0621924,0.267851034 26.9357134,0.154535218 C26.8092345,0.0412194024 26.6398965,-0.0138658598 26.4698222,0.00298186473 L23.4405973,0.30009159 C21.5179789,0.49307382 19.6765376,1.16390278 18.0888059,2.24972561 C16.5006576,1.16537955 14.6592467,0.49599286 12.7370146,0.304251126 L9.7077897,0.00714140088 C9.53825771,-0.00861122665 9.36974958,0.0460985776 9.24291463,0.158073141 C9.11698736,0.270382907 9.04496162,0.429824367 9.04454381,0.597201315 L9.04454381,1.19142077 L7.23569138,1.19142077 C6.90269085,1.19142077 6.63274058,1.45746188 6.63274058,1.78564022 L6.63274058,8.91627362 C6.63495752,9.56128058 6.85233124,10.1876722 7.25136811,10.698932 L1.5788069,10.698932 L2.78470852,8.32205417 L4.82388815,8.32205417 C5.15688869,8.32205417 5.42683896,8.05601306 5.42683896,7.72783472 C5.42683896,7.39965638 5.15688869,7.13361527 4.82388815,7.13361527 L2.41208492,7.13361527 C2.18355091,7.13351032 1.97459863,7.26074754 1.87244394,7.46221863 L0.0635915184,11.0275353 C-0.0298286645,11.21178 -0.019774503,11.4305612 0.0901625997,11.6057292 C0.200099702,11.7808972 0.394238868,11.8874669 0.603232492,11.8873709 L33.765527,11.8873709 L33.765527,13.0758098 L0.603232492,13.0758098 C0.270231956,13.0758098 0,13.3418509 0,13.6700292 L0,14.8584681 C0.00303154104,15.7887132 0.449740459,16.6634703 1.2061833,17.2198962 L1.2061833,23.1775404 C1.2061833,23.5057188 1.47613357,23.7717599 1.80913411,23.7717599 C2.14213465,23.7717599 2.41208492,23.5057188 2.41208492,23.1775404 L2.41208492,17.7701434 C3.55808721,18.0015908 4.7358446,17.5535597 5.42683896,16.6232999 C5.98926447,17.3818901 6.88532312,17.8303439 7.83864219,17.8303439 C8.79196126,17.8303439 9.68801992,17.3818901 10.2504454,16.6232999 C10.8128709,17.3818901 11.7089296,17.8303439 12.6622487,17.8303439 C13.6155677,17.8303439 14.5116264,17.3818901 15.0740519,16.6232999 C15.6364774,17.3818901 16.5325361,17.8303439 17.4858551,17.8303439 C18.4391742,17.8303439 19.3352329,17.3818901 19.8976584,16.6232999 C20.4620603,17.3794973 21.3569355,17.82707 22.3094616,17.8295654 C22.6424621,17.8295654 22.9124124,17.5635243 22.9124124,17.2353459 C22.9124124,16.9071676 22.6424621,16.6411265 22.3094616,16.6411265 C21.31046,16.6411265 20.5006092,15.8430032 20.5006092,14.8584681 L20.5006092,14.2642487 L24.118314,14.2642487 L24.118314,14.8584681 C24.1145653,16.1400065 24.9474619,17.2785903 26.1823756,17.6800753 C27.4172894,18.0815603 28.7741342,17.6548871 29.5448713,16.6227057 C30.2358657,17.5529655 31.413623,18.0009965 32.5596253,17.7695492 L32.5596253,26.1486377 C32.5596253,26.476816 32.8295756,26.7428571 33.1625761,26.7428571 C33.4955767,26.7428571 33.765527,26.476816 33.765527,26.1486377 L33.765527,17.2198962 C34.5219698,16.6634703 34.9686787,15.7887132 34.9714286,14.8584681 L34.9714286,11.2931514 C34.9697675,11.2012352 34.9460037,11.1110186 34.9020892,11.0299122 Z M29.5448713,8.91627362 L29.5448713,8.32205417 L32.1870017,8.32205417 L33.3929034,10.698932 L28.9262438,10.698932 C29.3252806,10.1876722 29.5426544,9.56128058 29.5448713,8.91627362 L29.5448713,8.91627362 Z M23.5605845,1.48853049 L25.9271664,1.25381381 L25.9271664,8.38147612 L23.4405973,8.62629453 C21.7607923,8.79140023 20.1389761,9.32126833 18.6917567,10.1778015 L18.6917567,3.27653682 C20.1312369,2.27699865 21.8084141,1.66107967 23.5605845,1.48853049 Z M10.2504454,1.25381381 L12.6170273,1.48734205 C14.3693103,1.66024443 16.0464966,2.27657613 17.4858551,3.27653682 L17.4858551,10.1778015 C16.0388887,9.32022536 14.4170574,8.78933762 12.7370146,8.62332343 L10.2504454,8.38147612 L10.2504454,1.25381381 Z M7.83864219,8.91627362 L7.83864219,2.37985967 L9.04454381,2.37985967 L9.04454381,8.91627362 C9.04298624,9.22258072 9.27794529,9.47986583 9.58719954,9.51049307 L12.6170273,9.8076028 C13.7588052,9.92013512 14.8731818,10.2214629 15.9133594,10.698932 L9.64749462,10.698932 C8.64849301,10.698932 7.83864219,9.90080865 7.83864219,8.91627362 Z M3.01503573,16.6411265 C2.01603412,16.6411265 1.2061833,15.8430032 1.2061833,14.8584681 L1.2061833,14.2642487 L4.82388815,14.2642487 L4.82388815,14.8584681 C4.82388815,15.8430032 4.01403733,16.6411265 3.01503573,16.6411265 Z M7.83864219,16.6411265 C6.83964058,16.6411265 6.02978977,15.8430032 6.02978977,14.8584681 L6.02978977,14.2642487 L9.64749462,14.2642487 L9.64749462,14.8584681 C9.64749462,15.8430032 8.8376438,16.6411265 7.83864219,16.6411265 Z M12.6622487,16.6411265 C11.6632471,16.6411265 10.8533962,15.8430032 10.8533962,14.8584681 L10.8533962,14.2642487 L14.4711011,14.2642487 L14.4711011,14.8584681 C14.4711011,15.8430032 13.6612503,16.6411265 12.6622487,16.6411265 Z M17.4858551,16.6411265 C16.4868535,16.6411265 15.6770027,15.8430032 15.6770027,14.8584681 L15.6770027,14.2642487 L19.2947076,14.2642487 L19.2947076,14.8584681 C19.2947076,15.8430032 18.4848567,16.6411265 17.4858551,16.6411265 Z M27.1330681,16.6411265 C26.1340665,16.6411265 25.3242156,15.8430032 25.3242156,14.8584681 L25.3242156,14.2642487 L28.9419205,14.2642487 L28.9419205,14.8584681 C28.9419205,15.8430032 28.1320697,16.6411265 27.1330681,16.6411265 Z M33.765527,14.8584681 C33.765527,15.8430032 32.9556761,16.6411265 31.9566745,16.6411265 C30.9576729,16.6411265 30.1478221,15.8430032 30.1478221,14.8584681 L30.1478221,14.2642487 L33.765527,14.2642487 L33.765527,14.8584681 Z"
                        fill="#2F302F" id="Shape"></path>
                    <path
                        d="M20.1872361,6.17142857 C20.283756,6.17110145 20.3789604,6.15197798 20.4658282,6.11546842 C21.6101815,5.63889077 22.8417725,5.33965919 24.1049367,5.23129806 C24.4594963,5.20039212 24.718051,4.92592323 24.6824348,4.61825463 C24.6468186,4.31058603 24.3305185,4.08622556 23.9759589,4.11713149 C22.5633998,4.23940931 21.1862988,4.57479836 19.9067094,5.10818573 C19.6362599,5.22184725 19.492122,5.48253401 19.5591854,5.73671527 C19.6262487,5.99089654 19.8867369,6.17119674 20.1872361,6.17142857 Z"
                        fill="#028F0B" id="Path"></path>
                    <path
                        d="M20.1872361,8.22857143 C20.283756,8.22824431 20.3789604,8.20912084 20.4658282,8.17261128 C21.6101815,7.69603362 22.8417724,7.39680205 24.1049367,7.28844092 C24.4594963,7.25753498 24.718051,6.98306609 24.6824348,6.67539749 C24.6468186,6.36772888 24.3305185,6.14336841 23.9759589,6.17427435 C22.5633998,6.29655217 21.1862988,6.63194122 19.9067094,7.16532859 C19.6362599,7.2789901 19.492122,7.53967687 19.5591854,7.79385813 C19.6262487,8.04803939 19.8867369,8.22833959 20.1872361,8.22857143 Z"
                        fill="#028F0B" id="Path"></path>
                    <path
                        d="M11.8988001,5.23618592 C13.1688009,5.34571701 14.4069465,5.64728313 15.5572609,6.12725062 C15.8756513,6.2435711 16.2431692,6.12271916 16.3929281,5.85245583 C16.542687,5.5821925 16.4220863,5.25744364 16.1187047,5.11403744 C14.8323106,4.57750969 13.4478864,4.24014599 12.0278155,4.11714825 C11.6713703,4.08606035 11.3533883,4.31174177 11.3175826,4.62122181 C11.281777,4.93070184 11.5417067,5.2067867 11.8981518,5.23787461 L11.8988001,5.23618592 Z"
                        fill="#028F0B" id="Path"></path>
                    <path
                        d="M15.8134073,8.22857143 C16.1137862,8.22807664 16.3739966,8.04769212 16.4408868,7.79358358 C16.5077769,7.53947504 16.363631,7.27894233 16.093289,7.16532708 C14.8137001,6.63194052 13.4365995,6.29655197 12.0240409,6.17427434 C11.6694813,6.14336846 11.3531814,6.36772859 11.3175652,6.67539672 C11.281949,6.98306485 11.5405036,7.25753332 11.8950631,7.28843922 C13.1583455,7.39732904 14.3899412,7.69712959 15.5341705,8.17428703 C15.6213903,8.21029849 15.7168183,8.22884888 15.8134073,8.22857143 Z"
                        fill="#028F0B" id="Path"></path>
                    <circle cx="6.68571429" cy="33.4285714" fill="#000000" id="Oval" r="1"></circle>
                    <circle cx="11.8285714" cy="33.4285714" fill="#000000" id="Oval" r="1"></circle>
                    <path
                        d="M17.9760659,23.7586857 C18.2077911,24.0040686 18.5834177,24.0040686 18.8151429,23.7586857 L21.6083077,20.8 L24.3296703,20.8 C24.6573997,20.8 24.9230769,20.518579 24.9230769,20.1714286 C24.9230769,19.8242782 24.6573997,19.5428571 24.3296703,19.5428571 L16.021978,19.5428571 C15.6942486,19.5428571 15.4285714,19.8242782 15.4285714,20.1714286 L15.4285714,30.2285714 C15.4285714,30.5757218 15.6942486,30.8571429 16.021978,30.8571429 L30.2637363,30.8571429 C30.5914657,30.8571429 30.8571429,30.5757218 30.8571429,30.2285714 L30.8571429,20.1714286 C30.8571429,19.8242782 30.5914657,19.5428571 30.2637363,19.5428571 L26.7032967,19.5428571 C26.3755673,19.5428571 26.1098901,19.8242782 26.1098901,20.1714286 C26.1098901,20.518579 26.3755673,20.8 26.7032967,20.8 L29.6703297,20.8 L29.6703297,25.8285714 L27.2967033,25.8285714 L27.2967033,23.3142857 C27.2967033,22.9671353 27.0310261,22.6857143 26.7032967,22.6857143 L24.3296703,22.6857143 C24.0019409,22.6857143 23.7362637,22.9671353 23.7362637,23.3142857 L23.7362637,24.5714286 L20.7692308,24.5714286 C20.4415014,24.5714286 20.1758242,24.8528496 20.1758242,25.2 L20.1758242,25.8285714 L18.3956044,25.8285714 C18.067875,25.8285714 17.8021978,26.1099924 17.8021978,26.4571429 L17.8021978,29.6 L16.6153846,29.6 L16.6153846,20.8 L19.9301538,20.8 L17.9760659,22.8698857 C17.7444107,23.1153428 17.7444107,23.5132287 17.9760659,23.7586857 Z M21.3626374,28.3428571 L23.7362637,28.3428571 L23.7362637,29.6 L21.3626374,29.6 L21.3626374,28.3428571 Z M26.1098901,27.7142857 L24.9230769,27.7142857 L24.9230769,26.4571429 L26.1098901,26.4571429 L26.1098901,27.7142857 Z M24.9230769,28.9714286 L26.1098901,28.9714286 L26.1098901,29.6 L24.9230769,29.6 L24.9230769,28.9714286 Z M29.6703297,27.0857143 L29.6703297,27.7142857 L29.0769231,27.7142857 C28.7491937,27.7142857 28.4835165,27.9957067 28.4835165,28.3428571 C28.4835165,28.6900076 28.7491937,28.9714286 29.0769231,28.9714286 L29.6703297,28.9714286 L29.6703297,29.6 L27.2967033,29.6 L27.2967033,27.0857143 L29.6703297,27.0857143 Z M24.9230769,23.9428571 L26.1098901,23.9428571 L26.1098901,25.2 L24.9230769,25.2 L24.9230769,23.9428571 Z M21.3626374,25.8285714 L23.7362637,25.8285714 L23.7362637,27.0857143 L21.3626374,27.0857143 L21.3626374,25.8285714 Z M18.989011,27.0857143 L20.1758242,27.0857143 L20.1758242,29.6 L18.989011,29.6 L18.989011,27.0857143 Z"
                        fill="#028F0B" id="Shape"></path>
                </g>
            </g>
        </g>
    </g>
</svg>