<?xml version="1.0" encoding="UTF-8"?>
<svg height="34px" version="1.1" viewBox="0 0 34 34" width="34px"
    xmlns="http://www.w3.org/2000/svg">
    <!-- Generator: Sketch 64 (93537) - https://sketch.com -->
    <title>research</title>
    <desc>Created with Sketch.</desc>
    <g fill="none" fill-rule="evenodd" id="CanSell" stroke="none" stroke-width="1">
        <g fill-rule="nonzero" id="HomePage" transform="translate(-32.000000, -526.000000)">
            <g id="book_store" transform="translate(24.000000, 515.000000)">
                <g id="research" transform="translate(8.000000, 11.000000)">
                    <path
                        d="M10.0000159,4.10298857e-05 C6.84518155,-0.00917959133 3.87453747,1.53617726 2.00008296,4.16182451 C1.81589277,4.41582885 1.86580588,4.77592565 2.11103119,4.9664991 C2.35652774,5.15707255 2.70483448,5.10542967 2.88902467,4.85142526 C4.55487493,2.51683057 7.19538717,1.14240039 10.0000159,1.14969772 C13.9260622,1.1488557 17.3874282,3.81295442 18.5156274,7.70357144 C19.6438265,11.5941884 18.1716609,15.7898913 14.8939426,18.0254103 C11.6162244,20.2609293 7.30904803,20.006925 4.29798513,17.4003631 C1.28692222,14.794082 0.285133476,10.4524318 1.83325385,6.71955012 C1.95451012,6.42765561 1.82403074,6.08917028 1.54164189,5.96371176 C1.25952428,5.83825324 0.932376332,5.97353515 0.811120067,6.26542966 C0.27346898,7.55397546 -0.00240948224,8.94328108 1.58534327e-05,10.3466201 C0.00382965364,14.3907623 2.28464202,18.0618971 5.83905253,19.7447812 L4.62784571,24.4409148 C3.92472183,24.4953643 3.3306473,25.0016891 3.14455815,25.7056039 L1.7111837,31.2580548 C1.47436769,32.1769612 2.00116803,33.1208471 2.88902467,33.3678347 L5.03338979,33.9426424 C5.17471984,33.9813745 5.32039016,34.0004599 5.46660305,33.9999497 C6.21014569,34.0057926 6.86715422,33.5017132 7.07792861,32.7641183 L8.51103181,27.2113866 C8.6914243,26.5074718 8.42449764,25.7620181 7.84452898,25.3491557 L9.06116114,20.6586355 C9.37338932,20.687825 9.68670264,20.6993324 10.0000159,20.6931577 C15.5227394,20.6931577 20,16.0610164 20,10.3466201 C20,4.63250438 15.5227394,4.10298857e-05 10.0000159,4.10298857e-05 L10.0000159,4.10298857e-05 Z M7.43898491,26.8953546 L5.99991387,32.4480863 C5.91880504,32.7517689 5.61661365,32.9311156 5.32228905,32.8502833 L3.177924,32.2754757 C3.03442374,32.2359015 2.91262491,32.1387904 2.8388403,32.0054732 C2.7650557,31.8732786 2.74498198,31.7161047 2.78350185,31.5684735 L4.22230164,26.0045151 C4.25919394,25.8571645 4.35115345,25.7311447 4.47783512,25.6536803 C4.60560179,25.5773386 4.75751127,25.5565693 4.89992646,25.5964241 L7.0499881,26.1712318 C7.19131822,26.2122092 7.31121817,26.3093203 7.38337513,26.4412342 C7.46177133,26.5782 7.48184505,26.7426713 7.43898491,26.8953546 L7.43898491,26.8953546 Z M6.80015127,24.9295574 L5.72213654,24.6362595 L6.88343024,20.1699929 C7.23336454,20.2918027 7.58926675,20.3934045 7.9500518,20.4747982 L6.80015127,24.9295574 Z"
                        fill="#028F0B" id="Shape"></path>
                    <path
                        d="M16.3434596,13.8959872 C16.6227381,14.042746 16.9681394,13.9353275 17.1148932,13.6560393 C18.9945127,9.99739246 17.7934199,5.50925133 14.3371743,3.27857321 C10.8812077,1.04817415 6.29696716,1.80233581 3.73742593,5.02238039 C1.1778847,8.2427039 1.47753011,12.8789989 4.43018166,15.7427488 C7.38283322,18.6064986 12.0262216,18.7644177 15.1663608,16.1074136 C15.4093694,15.905411 15.4425703,15.5446522 15.2405746,15.3016352 C15.0385791,15.0588973 14.6781117,15.0254162 14.4351032,15.2274188 C11.9748857,17.2945976 8.40955132,17.3763472 5.85754302,15.4238413 C3.30553473,13.4713353 2.45179631,10.0085528 3.80354879,7.09318622 C5.15502229,4.17809869 8.34984539,2.59276877 11.4888686,3.27913126 C14.6278918,3.96577275 16.8690947,6.73996068 16.8805336,9.95330898 C16.8838816,11.0579062 16.6171581,12.1465998 16.1035201,13.1248059 C15.9567663,13.4040941 16.0641811,13.7492284 16.3434596,13.8959872 Z"
                        fill="#000000" id="Path"></path>
                    <path
                        d="M16.5,25 L14.5,25 C14.2238769,25 14,25.2238769 14,25.5 C14,25.7761231 14.2238769,26 14.5,26 L16.5,26 C16.7761231,26 17,25.7761231 17,25.5 C17,25.2238769 16.7761231,25 16.5,25 Z"
                        fill="#000000" id="Path"></path>
                    <path
                        d="M11.5,22 C11.2238769,22 11,22.2711614 11,22.6056036 L11,29.3943964 C11,29.7288386 11.2238769,30 11.5,30 C11.7761231,30 12,29.7288386 12,29.3943964 L12,22.6056036 C12,22.2711614 11.7761231,22 11.5,22 Z"
                        fill="#000000" id="Path"></path>
                    <path
                        d="M22.5,15 L24.5,15 C24.7761231,15 25,14.7761231 25,14.5 C25,14.2238769 24.7761231,14 24.5,14 L22.5,14 C22.2238769,14 22,14.2238769 22,14.5 C22,14.7761231 22.2238769,15 22.5,15 Z"
                        fill="#000000" id="Path"></path>
                    <path
                        d="M33.4285714,12.6315789 L27.1428571,12.6315789 L27.1428571,8.57894737 C27.1428571,8.25922593 26.8869978,8 26.5714286,8 L22.4514509,8 C22.1358817,8 21.8800223,8.25922593 21.8800223,8.57894737 C21.8800223,8.89866881 22.1358817,9.15789474 22.4514509,9.15789474 L26,9.15789474 L26,11.4736842 L22.4514509,11.4736842 C22.1358817,11.4736842 21.8800223,11.7329101 21.8800223,12.0526316 C21.8800223,12.372353 22.1358817,12.6315789 22.4514509,12.6315789 L26,12.6315789 L26,16.1052632 L20.8571429,16.1052632 C20.5415736,16.1052632 20.2857143,16.3644891 20.2857143,16.6842105 C20.2857143,17.003932 20.5415736,17.2631579 20.8571429,17.2631579 L26,17.2631579 L26,21.8947368 L19.1428571,21.8947368 L19.1428571,19.6309622 C19.1428571,19.3112407 18.8869978,19.0520148 18.5714286,19.0520148 C18.2558594,19.0520148 18,19.3112407 18,19.6309622 L18,29.4210526 C18,29.7407741 18.2558594,30 18.5714286,30 C18.8869978,30 19.1428571,29.7407741 19.1428571,29.4210526 L19.1428571,25.3684211 L26,25.3684211 L26,29.4210526 C26,29.7407741 26.2558594,30 26.5714286,30 C26.8869978,30 27.1428571,29.7407741 27.1428571,29.4210526 L27.1428571,26.5263158 L32.8571429,26.5263158 L32.8571429,29.4210526 C32.8571429,29.7407741 33.1130022,30 33.4285714,30 C33.7441406,30 34,29.7407741 34,29.4210526 L34,13.2105263 C34,12.8908049 33.7441406,12.6315789 33.4285714,12.6315789 Z M27.1428571,16.6842105 L32.8571429,16.6842105 L32.8571429,17.8421053 L27.1428571,17.8421053 L27.1428571,16.6842105 Z M32.8571429,13.7894737 L32.8571429,15.5263158 L27.1428571,15.5263158 L27.1428571,13.7894737 L32.8571429,13.7894737 Z M19.1428571,24.2105263 L19.1428571,23.0526316 L26,23.0526316 L26,24.2105263 L19.1428571,24.2105263 Z M27.1428571,25.3684211 L27.1428571,19 L32.8571429,19 L32.8571429,25.3684211 L27.1428571,25.3684211 Z"
                        fill="#000000" id="Shape"></path>
                    <path
                        d="M9.6,11 C9.26865232,11 9,11.2238769 9,11.5 C9,11.7761231 9.26865232,12 9.6,12 L11.4,12 C11.7313477,12 12,11.7761231 12,11.5 C12,11.2238769 11.7313477,11 11.4,11 L9.6,11 Z"
                        fill="#000000" id="Path"></path>
                    <path
                        d="M16,11.5 C16,11.2238769 15.7313477,11 15.4,11 L13.6,11 C13.2686523,11 13,11.2238769 13,11.5 C13,11.7761231 13.2686523,12 13.6,12 L15.4,12 C15.7313477,12 16,11.7761231 16,11.5 Z"
                        fill="#000000" id="Path"></path>
                    <path
                        d="M13.716217,7.17647059 C14.0268555,7.17647059 14.278717,6.91308596 14.278717,6.58823529 C14.278717,6.26338463 14.0268555,6 13.716217,6 L7.5625,6 C7.25186155,6 7,6.26338463 7,6.58823529 L7,15.4117647 C7,15.7366154 7.25186155,16 7.5625,16 C7.87313845,16 8.125,15.7366154 8.125,15.4117647 L13.716217,15.4117647 C14.0268555,15.4117647 14.278717,15.1483801 14.278717,14.8235294 C14.278717,14.4986787 14.0268555,14.2352941 13.716217,14.2352941 L8.125,14.2352941 L8.125,10.7058824 L15.4375,10.7058824 C15.7481384,10.7058824 16,10.4424977 16,10.1176471 C16,9.7927964 15.7481384,9.52941176 15.4375,9.52941176 L8.125,9.52941176 L8.125,7.17647059 L13.716217,7.17647059 Z"
                        fill="#000000" id="Path"></path>
                </g>
            </g>
        </g>
    </g>
</svg>